<svg width="17" height="24" viewBox="0 0 17 24" fill="none" xmlns="http://www.w3.org/2000/svg">
<path d="M8.23451 0C3.69438 0 0 3.71757 0 8.28753C0 12.5294 6.7238 21.8556 7.48981 22.9047L7.77226 23.2907C7.8791 23.4387 8.05222 23.5271 8.23444 23.5271C8.41688 23.5271 8.59 23.4387 8.69691 23.2915L8.97914 22.9047C9.74619 21.8556 16.469 12.5294 16.469 8.28753C16.469 3.71757 12.7754 0 8.23451 0ZM8.23451 12.3956C6.37059 12.3956 4.85409 10.8696 4.85409 8.99332C4.85409 7.11708 6.37059 5.5911 8.23451 5.5911C10.0983 5.5911 11.6149 7.11701 11.6149 8.99332C11.6149 10.8696 10.0983 12.3956 8.23451 12.3956Z" fill="#FFFDFB"/>
</svg>
